# xmcd CD database file
#
# Track frame offsets:
#	150
#	19635
#	37412
#
# Disc length: 742 seconds
#
# Revision: 6
# Processed by: cddbd v1.4PL0 Copyright (c) Steve Scherf et al.
# Submitted via: CDex 1.40Beta6
#
DISCID=2002e403
DTITLE=Leonardo Nuñez - Recuerdo de Amor
DYEAR=1900
DGENRE=Bachata
TTITLE0=Besos y Abrazos
TTITLE1=Que Vuelva
TTITLE2=Recuerdo de Amor
EXTD=
EXTT0=
EXTT1=
EXTT2=
PLAYORDER=
